<svg xmlns="http://www.w3.org/2000/svg" viewBox="0 0 48 48" width="48px" height="48px"><linearGradient id="NundHvN_wDw1SvwMAOuS~a" x1="24" x2="24" y1="6" y2="42" gradientUnits="userSpaceOnUse"><stop offset="0" stop-color="#21ad64"/><stop offset="1" stop-color="#088242"/></linearGradient><path fill="url(#NundHvN_wDw1SvwMAOuS~a)" d="M11.3,37.02c0.06-0.431-0.082-0.866-0.386-1.183c-3.641-3.795-5.392-8.956-4.802-14.158 c0.919-8.119,7.572-14.665,15.82-15.566C22.62,6.038,23.315,6,23.999,6C33.925,6,42,13.943,42,23.705 c0,9.763-8.075,17.705-18.001,17.705c-2.218,0-4.121-0.311-5.989-0.978c-0.161-0.057-0.329-0.086-0.499-0.086 c-0.119,0-0.238,0.014-0.355,0.043L10.603,42L11.3,37.02z"/><path fill="#ccc" d="M23.999,5.926c9.951,0,18.046,7.975,18.046,17.778c0,9.803-8.095,17.778-18.046,17.778 c-2.223,0-4.131-0.312-6.004-0.982c-0.161-0.057-0.33-0.087-0.5-0.087c-0.119,0-0.239,0.014-0.356,0.043l-6.569,1.617l0.699-5.001 c0.06-0.433-0.082-0.87-0.387-1.188c-3.65-3.811-5.406-8.993-4.814-14.217c0.921-8.153,7.591-14.726,15.86-15.63 C22.617,5.964,23.313,5.926,23.999,5.926 M23.999,4c-0.757,0-1.527,0.042-2.287,0.125c-9.17,1.003-16.566,8.292-17.587,17.331 C3.478,27.165,5.363,32.831,9.3,37.039l-0.667,4.773c-0.089,0.633,0.148,1.269,0.631,1.696C9.627,43.828,10.093,44,10.57,44 c0.158,0,0.317-0.019,0.474-0.057l6.426-1.582c2.046,0.714,4.126,1.047,6.529,1.047C35.027,43.408,44,34.568,44,23.704 S35.027,4,23.999,4L23.999,4z"/><path fill="#fff" fill-rule="evenodd" d="M19.268,16.045c-0.355-0.79-0.729-0.806-1.068-0.82	c-0.277-0.012-0.593-0.011-0.909-0.011s-0.83,0.119-1.265,0.594c-0.435,0.475-1.661,1.622-1.661,3.956s1.7,4.59,1.937,4.906	s3.282,5.259,8.104,7.161c4.007,1.58,4.823,1.266,5.693,1.187c0.87-0.079,2.807-1.147,3.202-2.255	c0.395-1.108,0.395-2.057,0.277-2.255c-0.119-0.198-0.435-0.316-0.909-0.554s-2.807-1.385-3.242-1.543	c-0.435-0.158-0.751-0.237-1.068,0.238c-0.316,0.474-1.225,1.543-1.502,1.859c-0.277,0.317-0.554,0.357-1.028,0.119	c-0.474-0.238-2.002-0.738-3.815-2.354c-1.41-1.257-2.362-2.81-2.639-3.285c-0.277-0.474-0.03-0.731,0.208-0.968	c0.213-0.213,0.474-0.554,0.712-0.831c0.237-0.277,0.316-0.475,0.474-0.791c0.158-0.317,0.079-0.594-0.04-0.831	C20.612,19.329,19.69,16.983,19.268,16.045z" clip-rule="evenodd"/><path d="M17.427,14.714c0.277,0,0.55,0.001,0.793,0.011c0.494,0.02,1.059,0.125,1.503,1.114c0.252,0.56,0.669,1.589,1.005,2.416 c0.201,0.496,0.409,1.008,0.447,1.086c0.084,0.168,0.34,0.677,0.04,1.279l-0.065,0.132c-0.125,0.256-0.234,0.477-0.477,0.761 c-0.079,0.092-0.16,0.191-0.242,0.29c-0.166,0.202-0.338,0.411-0.497,0.57c-0.215,0.214-0.215,0.214-0.129,0.362 c0.328,0.563,1.233,1.999,2.54,3.164c1.455,1.296,2.697,1.836,3.365,2.126c0.142,0.062,0.257,0.112,0.342,0.155 c0.173,0.087,0.257,0.1,0.292,0.1c0.013,0,0.047,0,0.136-0.101c0.287-0.327,1.167-1.364,1.462-1.807 c0.258-0.387,0.586-0.583,0.975-0.583c0.24,0,0.467,0.075,0.68,0.152c0.499,0.181,3.025,1.43,3.296,1.566l0.257,0.126 c0.382,0.185,0.684,0.331,0.857,0.619c0.252,0.424,0.149,1.6-0.236,2.679c-0.488,1.37-2.645,2.496-3.628,2.585 c-0.079,0.007-0.158,0.017-0.239,0.026c-0.217,0.026-0.464,0.054-0.775,0.054c-0.75,0-1.985-0.148-4.908-1.3 c-2.967-1.17-5.891-3.727-8.233-7.198c-0.042-0.063-0.072-0.107-0.09-0.132c-0.612-0.815-2.034-2.954-2.034-5.202 c0-2.381,1.193-3.654,1.703-4.198l0.089-0.096c0.625-0.683,1.351-0.756,1.634-0.756l0.068,0L17.427,14.714 M17.427,14.214 L17.427,14.214l-0.068,0l-0.068,0c-0.349,0-1.243,0.09-2.002,0.919l-0.087,0.093c-0.549,0.585-1.837,1.959-1.837,4.538 c0,2.398,1.492,4.646,2.134,5.502l0.056,0.081c2.419,3.585,5.425,6.207,8.485,7.414c3.001,1.183,4.297,1.335,5.091,1.335 c0.34,0,0.614-0.032,0.833-0.058c0.081-0.01,0.154-0.018,0.226-0.025c1.098-0.1,3.471-1.282,4.054-2.915 c0.368-1.033,0.586-2.445,0.194-3.103c-0.251-0.417-0.648-0.609-1.069-0.813l-0.255-0.125c-0.023-0.011-2.781-1.382-3.345-1.587 c-0.243-0.088-0.529-0.182-0.85-0.182c-0.389,0-0.947,0.14-1.391,0.805c-0.231,0.347-0.907,1.159-1.3,1.615 c-0.084-0.04-0.19-0.087-0.316-0.141c-0.642-0.279-1.837-0.797-3.231-2.041c-1.13-1.007-1.949-2.23-2.331-2.859 c0.157-0.164,0.316-0.358,0.47-0.545c0.082-0.099,0.159-0.194,0.235-0.282c0.285-0.333,0.418-0.605,0.547-0.867l0.064-0.131 c0.272-0.546,0.258-1.127-0.042-1.725c-0.035-0.074-0.264-0.638-0.431-1.05c-0.338-0.833-0.757-1.866-1.012-2.434 c-0.536-1.193-1.281-1.382-1.939-1.409C17.993,14.215,17.712,14.214,17.427,14.214L17.427,14.214z" opacity=".05"/><g opacity=".07"><path d="M17.427,15.214c0.27,0,0.535,0.001,0.773,0.011c0.339,0.014,0.713,0.03,1.068,0.82c0.422,0.938,1.344,3.284,1.461,3.522 c0.119,0.237,0.198,0.514,0.04,0.831c-0.158,0.316-0.237,0.514-0.474,0.791c-0.238,0.277-0.499,0.618-0.712,0.831 c-0.238,0.237-0.485,0.494-0.208,0.968c0.277,0.475,1.229,2.028,2.639,3.285c1.813,1.616,3.341,2.116,3.815,2.354 c0.203,0.102,0.37,0.153,0.516,0.153c0.195,0,0.353-0.091,0.512-0.272c0.277-0.316,1.186-1.385,1.502-1.859 c0.179-0.269,0.359-0.36,0.559-0.36c0.154,0,0.32,0.054,0.509,0.122c0.435,0.158,2.768,1.305,3.242,1.543s0.79,0.356,0.909,0.554 c0.118,0.198,0.118,1.147-0.277,2.255c-0.395,1.108-2.332,2.176-3.202,2.255c-0.289,0.026-0.572,0.078-0.969,0.078 c-0.796,0-2.049-0.211-4.724-1.265c-4.822-1.902-7.867-6.845-8.104-7.161c-0.237-0.316-1.937-2.572-1.937-4.906 c0-2.334,1.226-3.481,1.661-3.956c0.435-0.475,0.949-0.594,1.265-0.594C17.337,15.214,17.382,15.214,17.427,15.214 M17.427,14.714 l-0.068,0l-0.068,0c-0.283,0-1.009,0.074-1.634,0.756l-0.089,0.096c-0.51,0.544-1.703,1.816-1.703,4.198 c0,2.248,1.422,4.387,2.034,5.202c0.019,0.025,0.048,0.069,0.09,0.132c2.342,3.472,5.266,6.028,8.233,7.198 c2.923,1.153,4.158,1.3,4.908,1.3c0.311,0,0.557-0.029,0.775-0.054c0.081-0.01,0.16-0.019,0.239-0.026 c0.982-0.089,3.139-1.215,3.628-2.585c0.385-1.079,0.488-2.255,0.236-2.679c-0.173-0.288-0.475-0.434-0.857-0.619l-0.257-0.126 c-0.271-0.136-2.796-1.385-3.296-1.566c-0.212-0.077-0.439-0.152-0.68-0.152c-0.389,0-0.717,0.196-0.975,0.583 c-0.295,0.443-1.175,1.479-1.462,1.807c-0.089,0.101-0.123,0.101-0.136,0.101c-0.035,0-0.119-0.013-0.292-0.1 c-0.084-0.042-0.199-0.093-0.342-0.155c-0.668-0.29-1.91-0.829-3.365-2.126c-1.306-1.165-2.211-2.6-2.54-3.164 c-0.086-0.148-0.086-0.148,0.129-0.362c0.158-0.158,0.33-0.367,0.497-0.57c0.081-0.099,0.163-0.198,0.242-0.29 c0.243-0.284,0.351-0.505,0.477-0.761l0.065-0.132c0.3-0.601,0.044-1.111-0.04-1.279c-0.038-0.078-0.246-0.591-0.447-1.086 c-0.335-0.827-0.753-1.857-1.005-2.416c-0.445-0.989-1.009-1.094-1.503-1.114C17.978,14.715,17.705,14.714,17.427,14.714 L17.427,14.714z"/></g></svg>